<svg id="Layer_1" data-name="Layer 1" xmlns="http://www.w3.org/2000/svg" viewBox="0 0 107.68 122.88"><defs><style>.cls-1{fill-rule:evenodd;}</style></defs><title>property-agreement</title><path class="cls-1" d="M96.17,74.89,106.48,83a3.17,3.17,0,0,1,.53,4.43l-4.5,5.71-15.27-12,4.5-5.71a3.17,3.17,0,0,1,4.43-.52ZM25.5,83a2.42,2.42,0,1,1,0-4.83H76.41L72.67,83Zm2.9-18.64V43.84a4.31,4.31,0,0,1-3,.14,3.44,3.44,0,0,1-1.64-1.14A3.63,3.63,0,0,1,23.05,41a4.68,4.68,0,0,1,1.12-3.44h0s.1-.11.16-.16L51,16.6a1,1,0,0,1,1.26-.06L78.93,37.3h0l.12.11a4.39,4.39,0,0,1,1.24,4.05,3.67,3.67,0,0,1-.85,1.62,3.61,3.61,0,0,1-1.51,1,4.13,4.13,0,0,1-3.17-.21V64.32H72.15V42.75c0-.47-18.32-14.94-20.34-16.52C49.67,27.86,31,42.22,31,42.83V64.39ZM51.71,41.11A11.3,11.3,0,0,1,63,52.38v12H40.44v-12A11.3,11.3,0,0,1,51.71,41.11Zm1,2V52.4H61v0a9.33,9.33,0,0,0-8.33-9.26Zm0,11.25v8.06H61V54.37Zm-2,8.06V54.37H42.4v8.06Zm0-10V43.12a9.35,9.35,0,0,0-8.33,9.26v0ZM66.81,18.32h8V29.15l-8-5.29V18.32Zm-41,78.14a2.45,2.45,0,0,1,0-4.89H66.05l-3.79,4.89Zm31.6,20a3.07,3.07,0,0,1,.53,0v.09l-.1,1.21c-.15,2-.28,3.62-.28,5.08H7.48A7.48,7.48,0,0,1,0,115.4V7.48A7.48,7.48,0,0,1,7.48,0H96.8a7.48,7.48,0,0,1,7.47,7.48v56a8.17,8.17,0,0,1-.2,1.93l-.43-.35a13.25,13.25,0,0,0-5.79-2.62v-55a1.08,1.08,0,0,0-1-1.05H7.48a1.12,1.12,0,0,0-.75.3,1.15,1.15,0,0,0-.31.75V115.39a1.05,1.05,0,0,0,.32.74,1.08,1.08,0,0,0,.75.31ZM85.56,115c-3.56,1.58-6.42,2.37-10,4-7.58,2.6-7.31,4.36-6.74-3.15L70.32,103h0L85,84l15.27,12L85.57,115v0ZM72.93,105l10,7.9-7,3.11c-5.5,2.43-5.33,3.6-4.43-2.07L72.93,105Z"/></svg>